<?xml version="1.0" encoding="UTF-8"?>
<svg id="Layer_2" data-name="Layer 2" xmlns="http://www.w3.org/2000/svg" viewBox="0 0 291.04 338.73">
  <defs>
    <style>
      .cls-1 {
        fill: #002d42;
      }

      .cls-2 {
        fill: #fff;
      }

      .cls-3 {
        fill: #c5c8d1;
      }

      .cls-4 {
        fill: #617597;
      }
    </style>
  </defs>
  <g>
    <g id="b">
      <path class="cls-3" d="m281.49,210.16l-.56-.24-.69-.24-.81-.22-.51-.11-.49-.09-.63-.07-.71-.05-1.56-.04h-1.67l-2.3.05h-.72l-1.43-.09-1.92-.43-1.59-1.01-1.09-1.5-.78-3.01.07-2.66,4.76-19.06,2.26-18.47.6-4.87,1.54-4.4-.05-3.57-.07-2.23-.09-1.76-.16-2.48-.25-2.88-.58-5.23-.85-4.07-.27-1.07-.24-.81-.31-.98-.45-1.3-.45-1.14-.51-1.12-.29-.6-.34-.63-.53-.87-.43-.63-.45-.62-.49-.58-.6-.63-.71-.63-.38-.29-.4-.29-.6-.36-.58-.29-.74-.31-1.3-.42-1.65-.45-7.49-1.1-19.44-3.98-16.69-3.26-16.2-3.31-4.69-1.05-5.71-1.04-1.23-.33-1.14-.31-.81-.24-.81-.24-.94-.29-1.09-.34-1.1-.38-.96-.36-.52-.25-.54-.25-.38-.2-.29-.16-.25-.16-.22-.16-.2-.18-.16-.14-.27-.25-.34-.34-.31-.33-.18-.2-.09-.11-.2-.22-.25-.29-.18-.22-.16-.22-.18-.24-.16-.22-.11-.14-.22-.29-.6-.83-1.19-1.72-1.92-3.04-1.83-3.11-.36-.62-.34-.62-.38-.65-3.57-6.17-.56-.94-.24-.4-.29-.47-.24-.38-.31-.51-1.25-2.01-1.3-1.99-.47-.67-.27-.38-.6-.83-.62-.81-.13-.16-.05-.07-.49-.6-.58-.69-.58-.65-.4-.43-.22-.22-.2-.2-.16-.16-.09-.09-.47-.4-.22-.18-.14-.11-.72-.54-14.04-10.96-11.41-6.35-8.4-3.51-12.24-1.21-5.3-.18h-3.87l-.65.04-1.67.07-1.03.07-1.61.14-2.84.33-3.57.42-12.48,4.01-13.69,7.8-10.37,6.95-7.4,7.26-4.73,6.34-14.49,22.85-4.82,7.82-3.57,6.66-2.05,4.65-1.05,1.71-.24.76-.05.29-.05.38-.07.65-.05.53-.05.71-.07,1.18-.04.76.09,1.44-.09,4.31v5.2l.18,11.28.47,13.33.31,6.23.54,8.45.33,4.09.36,3.98.25,2.46,1.17,2.46.11.87.14,1.05.16,1.12.18,1.19.13.71.09.53.11.56.56,2.37.69,1.74,2.24,2.27,1.18.78,1.88,1.19,1,.62.89.53.76.45,1.16.67,1.16.65,1.32.72.78.42.98.51.87.43.75-.09,1.57.85,3.49,1.43,3.49,1.2,3.71,1.09,2.97.51,2.97.34,3.24.35,2.58-.32h1.1l1.58-.05,1.56-.13,1.25-.16,1.45-.27.67-.16.58-.16.91-.29.51-.2.62-.29.51-.29.51-.33.47-.38.45-.49-1.32-1.64-.67-1.25-.25-1.16.09-1.83,1-1.88,3.01-2.24,3.95-2.59,33.57-18.47.47-.27.58-.18.63-.07.71.04.94.34,1.12.81,1.59,1.47,1.67,2.14.98,2.26.18.74.14.92.05.76v.51l-.04.47-.05.58-.13.71-.24.89-.24.67-.31.69-.2.38-.22.38-.2.31-.18.27-.29.38-.31.38-.34.38-.27.27-.25.24-.24.2-.29.24-.29.22-.24.16-.25.16-.33.2-.33.16-.25.13-.25.11-.2.09-.16.05-.22.07-.36.11-.18.05-.2.05-.69.16-.47.05-.38.05-.42.07-.33.05-.33.05-.38.07-.81.05-.71.05-.53.04-.72.05-1.5-.05-1.3-.05-2.61-.11-2.55.04-2.75.27-2.75.63-3.58,1.32-4.22,2.23-3.28,2.15-.07,1.09,1.09,1.47,1.58,1.1,1.18.74,1.36.78.92.47.96.45.85.34.81.31.89.31.91.29,1.05.27.96.22.74.14.89.14.62.09.63.07.62.07.72.05,1.05.05h.91l.91.02,1.16-.04,1.34-.11.38-.04.4-.05.36-.04.29-.05.54-.07.54-.09.83-.16.8-.18,1.68-.43,1.47-.47.56-.2.63-.24.8-.33.65-.29.91-.43.78-.4.62-.34.56-.31,2.52-2.41-3.22,6.14.11,3.11.42,2.79,1.61,6.54,2.24,6.68,3.26,8.26,2.08,4.91,1.34,2.93,1.39,2.9,1.34,2.61,1.21,2.25.91,1.63,2.15,3.62,2.57,3.96,1.67,2.41,1.34,1.83,1.39,1.83,2.17,2.66,1.85,2.15,1.5,1.67,1.48,1.58,2.32,2.28,2.64,2.46,2.93,2.46,3.06,2.37,3.1,2.19,6.55-6.96,3.93-4.11,3.13-3.4,2.53-2.84.67-.78.87-1.01.4-.45.62-.72-.54.85-.45.74-.22.33-.74,1.19-.71,1.14-.6.98-1,1.63-1.47,2.43-.78,1.27-2.12,3.57-4.72,8.27,3.6,1.55,2.1,1.09,2.44,1.16,3.17,1.32,2.43.91,1.94.63,2.26.67,2.21.56,2.5.56,2.26.42,2.28.33,1.52.18,1.23.11,2.63.16,1.9.04,2.28-.04,1.56-.07,1.56-.13,1.67-.18,1.47-.2,1.48-.25,1.18-.22.94-.2,1.96-.49,1.43-.4,1.47-.47,1.32-.47,1.23-.47,1.23-.49,1.39-.62,1.12-.53,1.48-.76,1.47-.81.98-.58.94-.58.96-.62,1.27-.87,1.09-.8,1.03-.8.67-.54.6-.51.42-.36.38-.34.31-.27.22-.2.53-.49.27-.27.09-.09.31-.29.38-.38.18-.18.47-.49,1.44-1.54-.95-9.09-1.34-8.26,6.72,13.08,2.14-2.91,1.68-2.61,1.67-2.91,1.81-3.69,1.7-4.13,1.07-2.99.74-2.32.58-1.96.8-3.01.71-2.99.65-3.01,5.36-32.6.07-.34.09-.45.09-.4.34.34.4.31.18.14.29.2.34.22.29.16.24.13.42.18.47.18.92.31.91.14.81.13h.56l.85.05.81-.09.78-.07,1.01-.18,1.05-.25.85-.27.83-.31.54-.22,1.36-.63,1.61-.85,1.7-1.07,1.81-1.29,1.39-1.07-.31-.24-.4-.29-.38-.27-.34-.22-.38-.22-.34-.18-.42-.22-.33-.14-.04.09Zm-156.61-55.64c-7.88,7.88-17.05,11.28-28.18,11.28-11.75,0-21.12-4.66-29.61-12.44-8.53-7.82-10.44-18.23-10.95-29.46-.49-10.81,4.37-19.82,11.9-27.35,7.88-7.88,17.38-12.01,28.51-12.01,11.75,0,20.09,3.97,28.58,11.75,8.53,7.82,11.76,16.38,12.27,27.6.49,10.81-4.99,23.09-12.52,30.62Zm78.47-1.46c-.05,2.5-.71,7.35-.81,8.02-.36,2.26-.22,2.91-1.7,8.84-.71,2.82-1.25,3.78-1.67,4.8-.49,1.19-1.7,3.3-3.2,4.85-1.99,2.06-4.49,3.11-5.9,3.84.49.34.53.25,1.47,1.41.87,1.07,2.05,4.04,2.28,4.98.58,2.23.94,3.53.98,6.92.04,3.17-.2,4.85-.31,5.87-.47,4.8-1.54,8.65-1.76,9.47-.25.96-.85,2.88-1.23,3.84-.36.89-.38,1.01-.67,1.61-.33.69-.54,1.21-.8,1.7-.27.51-.45.94-.8,1.5-.2.31-.43.76-.62,1.03-.16.24-.31.51-.53.83-.36.51-.65.96-1.05,1.45-.2.25-.33.43-.71.83-.27.27-.8.72-1.03.85-.74.45-1.56.96-2.57,1.12-2.01.31-3.55.25-5.2-.74-.62-.38-1.52-1.34-1.81-2.3-.49-1.59-.09-2.97-.09-2.97l13.89-75.32c.2-1,.6-1.5.6-1.5.42-.65.56-.67,1.12-1.19.29-.27,1.23-.74,1.18-.71.78-.34,1.45-.53,1.7-.58,0,0,.25-.05.45-.09.14-.04.31-.04.45-.05.31-.05,1.12-.09,1.72,0,.69.11,1.65.25,2.61.87.07.05,1.36.96,1.83,1.63.29.42.33.4.6.81.54.85.98,1.76,1.41,3.57.34,1.45.14,4.6.14,4.85l.02-.04Zm57.1,5.27s-.07,1.52-.09,1.77c-.07,1.77-.56,5.43-.56,5.43,0,0-.34,3.37-.89,6.25-.53,1.85-1.01,4.47-1.94,6.21-.54,1.03-2.05,3.13-3.49,4.25-1.99,1.54-2.66,1.85-3.28,2.19.47.22,1.5,1.39,1.77,1.94,2.68,5.18,2.61,9.22,2.37,15.19-.04,1.09-.4,3.22-.63,4.54-.2,1.1-.63,2.53-1.18,4.07-.54,1.54-1.18,3.22-2.08,4.67-1.68,2.66-3.96,4.16-6.54,4.09-1.45-.04-3.93-.76-3.77-2.99,0,0,8.98-60.29,9.36-63.13.11-.83.54-1.61.91-2.1.2-.27.67-.78.96-1,.24-.18.71-.56,1.23-.85.54-.27,1.1-.45,1.1-.45,0,0,.69-.2,1.32-.2.53,0,.96.2,1.29.27.45.13.94.42,1.32.69.34.24.62.47.71.56.43.4.87.96,1.01,1.38.2.33.42,1.09.53,1.5.43,1.76.51,2.63.58,4.18,0,.18-.05,1.52-.05,1.52h.04Z"/>
    </g>
    <g id="c">
      <path class="cls-1" d="m227.58,222.06s1.9-3.06,2.17-3.64c0,0-.14-.43,1,2.03,0,0,1.05,2.24,1.21,6.03.54,9.09,1.45,26.65,1.45,26.65,0,0-.29-.25-.67-.98-.87-1.68-1.43-3.51-1.76-5.41l-1.07-6.61-9.41-6.19,7.08-11.89v.02Z"/>
    </g>
    <g id="e">
      <g>
        <path class="cls-4" d="m71.31,208.53c-.2.58-4.46,6.34-19.73,4.6-14.45-1.63-34.17-15.44-34.17-15.44,0,0,26.66,31.71,35.82,41.75,1.77,1.94,4.11,2.88,4.51,3.13.02,0,2.81.88,5.82,1.36,3.01.47,6.76.08,6.79.06,0,0,29.02-7.97,28.91-8.06l-27.96-27.39Z"/>
        <path class="cls-4" d="m263.66,215.72s6.5,7.69,20.75-3.8l-20.55,17.36c-.11.09-.27.04-.29-.11l-.96-5.76"/>
        <path class="cls-4" d="m229.91,240.16s-9.36-6.32-9.41-6.23c0,0-13,20.78-12.91,20.82.76.27,4.04,1.01,9.65-3.19,6.5-4.89,8.33-8.82,10.52-10.46,1.38-1.03,2.14-.91,2.14-.91h0l.02-.04Z"/>
        <path class="cls-4" d="m116.2,209.8c-8.11,4.76-18.56,5.68-27.5,1.96-3.17-1.32-6.05-3.46-6.32-3.68.27.43,22.29,21.33,22.29,21.33.05.04.94.96,1.65.91s1.25-1.09,1.27-1.14l2.77-5.23,8.38-16.57-2.52,2.41-.02.02Z"/>
      </g>
    </g>
    <g id="f">
      <g>
        <path class="cls-2" d="m81.71,204.89s.13-.27.6-.62c4.27-3.37,26.69-23.88,26.78-23.95.14-.13.34-.33.53-.49.51-.42,1.45-.56,2.06-.53,1.12.05,2.01.78,3.51,2.15,6.63,6.05,3.17,15.57-4.02,17.02-6.45,1.3-7.26.09-13.8.47-6.54.38-12.33,4-16,6.57l.11-.25.11-.2.14-.2-.02.02Z"/>
        <path class="cls-2" d="m164.28,288.34c-17.63-11.82-29.8-29.73-37.82-49.21-2.73-6.64-9.56-22.58-8.02-30.6-2.21,8.47-14.85,56.79-14.85,56.79-.2.74-1.12,3.86-1.23,4.53-.34,2.14-.51,2.28.34,4.44.47,1.18,1.68,2.39,2.59,2.88,7.79,4.31,23.08,12.75,41.75,21.98,0,0,.4.24,1.03.24.69,0,1.56-.14,2.64-.6,2.05-.87,4.13-2.26,5.78-3.6.78-.63,2.3-1.83,3.8-3.15,2.01-1.77,3.98-3.68,3.98-3.68v-.02Z"/>
        <path class="cls-2" d="m239.91,283.96c-5.2,5.7-11.39,10.12-19.34,13.16-16.42,6.28-35.45,3.26-50.78-5.36-.56-.33-.87-.51-1.43-.83-.04.09-2.43,4.22-4.38,7.91-.78,1.5-1.39,2.75-1.88,3.93-.2.47-.38.91-.45,1.25-.13.53-.18.78-.14.91.02.14.05.18.22.29,0,0,1.36.85,3.71,2.14,2.01,1.1,4.76,2.52,7.66,4.04,8.02,4.16,18.09,9.11,22.56,11.03,0,0,1.41.67,2.72,1.21.91.36,1.86.65,1.9.63l.85.2.92.14.92.09,1.03.04h.85l.89-.09.83-.11.91-.18.76-.2.83-.25.49-.18.43-.18.43-.18.38-.18.24-.11.69-.38.45-.27.65-.42.83-.63.67-.58,6.16-5.85,12.73-11.84,4.25-4.15.89-.94.42-.47.29-.38.09-.14.07-.13.09-.16.07-.16.07-.14.07-.18.11-.29.07-.25.14-.56.16-.85.18-1.83s.07-2.14,0-4.31c-.07-1.99-.27-4.04-.27-4.22l-.02.04Z"/>
        <path class="cls-2" d="m257.32,246.5c-2.48,12.62-6.12,23.95-13.78,33.75,0,0,1.58,3.08,1.59,3.1l3.3,6.41s1.63-1.47,1.96-1.77c1.32-1.29,1.86-1.86,2.37-2.46,2.63-3.15,3.58-6.12,3.93-6.97.11-.25.76-2.08,1.16-5.09.25-1.92.29-4.36.43-6.99.29-5.52.72-12.22,1.34-18.54,1.19-12.04,2.64-22.74,2.64-22.74l1.36-9.45s-2.3,10.36-6.32,30.76h.02Z"/>
        <path class="cls-2" d="m222.42,209.92c-.87-.74-1.1-.89-1.5-1.83-.05-.11-.22-1.29-.31-1.86,0,0-.09-.83-.11-1.65,0-.31,0-.6.02-.87,0-.22.04-.56.11-.83.07-.29.18-.51.18-.51,0,0-1.34,2.28-4.82,6.72-6.41,8.56-10.23,18.52-9.6,29.17.45,7.73,1.21,16.44,1.21,16.51,0,0,8.87-14.03,11.89-19.12l10.27-17.22h0c1.67,2.81,2.12,5.79,2.26,9.07l1.39,25.65,2.05-30.78c0-2.3-.78-4.04-1.9-5.9-.92-1.52-1.96-2.05-3.39-2.99-.02,0-.53-.22-.54-.24-.25-.13-1.61-.58-3.02-1.16-1.41-.58-2.81-1.29-3.22-1.52l-.96-.63-.02-.02Z"/>
        <path class="cls-2" d="m271.75,158.04v-2.03c.04-4-.07-13.18-1.59-21.4-1.27-6.84-3.96-12.96-8.67-14.95-8.71-3.69-76.89-13.98-83.32-19.3-6.43-5.32-15.75-28.01-23.07-33.46-9.18-6.84-29.87-19.43-36.52-20.3-7.33-.94-18.45-1.52-24.97-.81-4.27.47-6.12.76-6.12.76l.53-.2,44.65-4.13,12.42-.98,3.6-.22,2.52-.11h3.1l2.3.62,3.6,1.23,18.05,7.26,20.66,8.85,10.52,4.51,2.86,1.19.74.27.63.27.49.24.49.25.47.25.38.2.63.36.2.11.27.16.49.29.65.4.62.4.47.31.4.25.4.27.42.29.49.34.43.33.24.18.54.43.36.33.67.67.63.63.53.54,39.32,40.9,4.62,5.36c2.37,3.4,4.27,7.28,5.2,12.62,1.36,7.8.53,12.49-.2,17.6l-1.16,9.22.04-.02Z"/>
        <path class="cls-2" d="m269.09,195.21l-.47-.51s-.05.2-.05.22l-.92,3.48-1.56,5.81s1.03-8.44,1.05-8.62c.07-1.21.29-2.41.53-3.6.05-.71,1.19-10.59,1.19-10.59l-4.42,17.58c-.4,1.59-.54,3.26-.29,4.87.29,1.86,1.09,3.91,3.13,4.74,2.12.85,4.76.54,7.64.54h1.56c2.61.07,5.2.67,7.89,2.82,0,0-15.26-16.71-15.3-16.73l.02-.02Z"/>
      </g>
    </g>
    <g id="k">
      <path class="cls-1" d="m83.14,15.59c2.63-5.38,7.98-15.59,8.15-15.59,1.3,5.58,2.64,11.17,3.96,16.78.89,3.71-1.1,7.51-4.65,8.91-7.55,2.97-15.1,5.92-22.69,8.91-3.57,1.39-7.6-.04-9.49-3.37-2.86-5.07-5.74-10.19-8.82-15.62,5.96,2.26,11.37,4.35,16.93,6.46,1.39-4.54,2.77-8.96,4.22-13.65,4.15,2.37,8.18,4.73,12.4,7.17h.02-.04Z"/>
    </g>
    <g>
      <g>
        <g>
          <path class="cls-2" d="m88.97,149.79v-3.36c-.58-.09-1.16-.17-1.75-.32-.94-.26-1.03-.51-.64-1.28,4.05-7.79,8.13-15.6,12.16-23.39.86-1.63,2.23-2.59,4.13-2.89.83-.13,1.63-.21,2.48-.3v-3.38c-5.74,0-11.47-.04-17.25-.08v3.36c.64.11,1.28.19,1.91.38.73.23.88.75.54,1.41-1.6,3-3.15,6.03-4.73,9.07-2.21,4.28-4.43,8.54-6.64,12.82-.3.6-.58,1.22-.88,1.82-.69,1.41-2.14,1.9-3.57,2.29-.96.28-2.01.32-3.06.47v3.36c5.74,0,11.49.04,17.31.08h.02l-.04-.06Z"/>
          <path class="cls-2" d="m64.16,114.79c1.8.58,2.38,2.29,3.47,4.04,3.15,5.01,5.57,14.34,11.75,14.27,1.61,0,8.78.19,10.57,0-2.14-1.05-4.32-2.21-6.1-4-2.37-2.37-3.9-5.57-5.27-8.8-.88-2.05-1.84-3.81-3.62-4.71-1.93-.99-6.19-.92-6.19-.92,0,0-3.23-.04-5.05,0,0,0,.39.13.41.13h.04Z"/>
        </g>
        <path class="cls-2" d="m100.93,132.17l-5.91-2.1h0c2.46,0,5.93-.09,8.41-.11.54,0,1.45-.08,1.95-.21,5.01-1.24,9.65-3.25,11.02-8.73.75-3,.6-8.54-1.07-11.11-1.54-2.37-3.9-4.05-6.4-5.01-.69-.28-1.43-.56-2.14-.69-2.03-.36-8.92-.54-8.92-.54,0,0-7.11-.08-10.66-.09h-4.88s-14.1-3.96-14.28-4.04c.19-.09,33.49,0,48.84,0,.08,0,5.05,1.8,7.64,3.6,3.27,2.27,5.16,4.58,5.93,8.54.98,5.09-1.35,12.46-4.96,15.86-3.92,3.66-6.4,4.09-8.62,4.67"/>
      </g>
      <path class="cls-2" d="m93.8,132.09s3.25,11.19,18.71,10.42c0,0,9.63.13,15.09-6.34l-11.51,17.83s-18.17,6.25-22.3-21.92h0v.02Z"/>
    </g>
  </g>
  <g id="l">
    <path class="cls-4" d="m203.3,149.24c-.13-1.05-.4-2.23-.78-3.2-.43-1.12-1.16-2.05-1.99-2.93-.83-.89-1.97-1.38-3.13-1.68-2.95-.78-7.46.74-8.09,4.22v.02s-.11.62-.31,1.71c.01,0,.03-.02.04-.03.17-.72.51-1.4,1.08-1.91.76-.68,1.45-1.13,2.44-1.43,1.75-.53,3.86.35,4.75,1.93,1.83,3.26,1.76,6.49,1.43,10.05-.07.71-1.22,9.84-2.43,13.45-.34,1.01-.68,2.3-1.12,3.25-.88,2.43-2.11,4.09-3.82,5.8-2.19,2.18-4.67,3.84-7.86,4.58l-.83.17c1.61.1,2.51.48,3.58,1.36.46.37.81.75,1.13,1.21.34.49.7,1.06.89,1.61,2.41,7.12,2.26,15.66-.2,23.64-.41,1.35-.91,2.98-1.37,4.28-.64,1.81-1.4,3.44-2.69,4.96-.77.9-1.69,1.4-2.75,1.65-.69.17-1.45.28-2.23.2-1.18-.12-2.75-.48-3.38-1.34-.05.25-.13.49-.16.72-.41,4.11,2.84,5.4,5.44,5.4,2.3,0,2.99-.45,3.82-.89.53-.27.91-.54,1.19-.8.6-.51,1.67-1.68,3.2-4.33,3.44-6.07,4.94-13.04,5.5-19.93.34-4.02.24-8.49-1.21-12.33-.67-1.79-1.68-4.24-3.37-5.23,0,0,3.87-1.74,5.54-3.49,3.06-3.2,4.42-6.46,5.38-10.57.49-2.14.53-1.96,1.29-6.28.31-1.88.56-3.87.76-5.78.14-1.5.2-3.19.27-4.69.04-1.07.13-2.32,0-3.37Z"/>
    <path class="cls-4" d="m260.26,154.18c-.11-.87-.33-1.72-.63-2.52-.34-.94-.58-1.18-1.23-1.9-.65-.72-1.68-1.19-2.57-1.43-2.28-.62-5.88,1.59-6.32,4.49,0,0,.96-.98,1.57-1.29,1.01-.53,2.28-.6,3.23-.09.46.24,1.15.72,1.55,1.35s.74,1.4.88,2.1c.23,1.16.38,3.2.38,4.57,0,2.52-.48,5.61-1.11,9.05-.39,2.15-.91,4.66-1.54,6.54-.13.4-.3.97-.44,1.31-.36.94-.68,1.42-.8,1.63-.18.33-.41.61-.63.91-.36.49-.75.96-1.15,1.41,0,0-1.08,1.28-2.35,2.18-1.04.73-2.47,1.41-4.12,1.74,0,0,.54.04.73.07,1,.16,1.95.78,2.53,1.47.97,1.15,1.31,2.34,1.61,3.45.41,1.49.61,2.93.85,4.86.58,4.7-.32,10.09-1.64,15.05-.3,1.14-.73,2.64-1.21,3.68-.34.73-.73,1.54-1.22,2.21-.86,1.15-2.02,1.69-3.13,1.88-.99.16-1.99.05-2.81-.45-.19-.11-.21-.13-.37-.32-.12-.13-.15-.39-.15-.39-.03.18-.04.31,0,.84.09,1.29,1.72,2.08,2.88,2.28.8.14,1.61.11,2.39-.07.92-.22,1.83-.6,2.57-1.19,1.21-.98,2.52-2.35,3.55-4.8,2.43-5.78,2.91-9.58,2.97-15.7.02-3.8-.38-5.52-1.56-8.69-.56-1.48-1.47-3.17-2.77-3.96,0,0,2.7-1.43,4-2.88,3.86-3.93,4.11-6.59,4.78-10.03.34-1.79.63-4.65.87-6.32.24-1.58.34-3.15.47-4.74.09-1.25.14-2.5.18-3.75.04-.89-.14-1.68-.25-2.55Z"/>
  </g>
  <g id="h">
    <g id="i">
      <g>
        <path class="cls-1" d="m266.1,204.19c.27-2.35,5.14-42.51,7.33-59.55.78-6.03.36-12.18-1.47-18-1.32-4.18-4.06-8.06-6.5-10.77,0,0-36.9-39.03-43.27-45.32-1.68-1.65-7.13-4.98-9.29-5.79-9.32-3.66-51.69-22.81-58.57-23.86-5.07-.76-66.81,5.63-66.81,5.63-3.66,1.27-20.66,10.27-30.6,17-6.32,4.06-12.98,12.29-14.76,15.15-7.57,12.29-21.27,29.62-25.84,43.38-1.65,4.98.22,72.75,4.53,77.87,7.91,9.4,22.85,25.96,32.17,36.48,4.24,4.78,10.7,6.88,16.95,5.5,11.15-2.46,27.21-6.39,27.21-6.39l-27.01-24.91c-3.11-2.55-3.08-6.34.13-8.65,5.67-4.07,37.49-21.31,39.25-22.16,0,0,.02,0,0,0-1.14,1.07-20.8,19.21-27.07,24.24-1.61,1.3-1.81,2.7-.16,4.02.25.24.49.47.74.71.65.63,1.32,1.27,1.97,1.9.96.92,1.92,1.85,2.88,2.77,1.14,1.1,2.3,2.19,3.44,3.3,1.21,1.16,2.44,2.34,3.66,3.49s2.35,2.24,3.53,3.37c1.01.98,2.05,1.94,3.06,2.91.74.71,1.5,1.43,2.24,2.14.53.51,1.1,1.18,1.76,1.5.31.16.71.22,1.01.07.22-.11.4-.29.54-.49.85-1.14,11.5-22.36,11.5-22.36,0,0-13.09,50.86-16.35,62.46-.81,2.9.47,5.96,3.1,7.42l41.59,21.87c6.77,3.13,31.56-25.96,33.2-27.86-1.34,2.08-20.42,32.64-18.63,33.86,3.57,2.34,24.03,12.85,36.32,18.29,5.68,2.52,12.29,1.32,16.77-2.99,8.96-8.69,22.34-20.49,24.39-23.28,3.13-4.31-1.01-26.65-1.3-28.17,0,0,0-.02.02,0,.63,1.36,10.66,20.77,10.66,20.77l2.08-1.9c3.49-3.2,5.96-7.4,6.92-12.04.02-.09.04-.18.05-.27.38-1.88.62-3.78.67-5.7.69-23.68,5.49-54.1,5.49-54.1l-.22,65.79c.11,3.4-1.3,6.66-3.86,8.93-11.66,10.19-35.25,35.9-48.07,45.77-3.71,2.88-8.74,3.33-12.94,1.19l-107.4-52.85c-4.38-2.64-4.92-4.92-2.72-10.68l11.8-25.38c.36-.81-.83-3.46-2.48-2.97-7.71,2.32-23.14,8.69-32.77,12.75-5.03,2.14-10.86.81-14.5-3.28-13.23-14.92-37.95-42.98-43.94-49.52-3.19-3.48-3.66-12.94-3.68-17.6C.51,146.32,0,125.21,0,123.06c0-3.87,2.63-10.99,4.6-14.27,8.27-13.94,18.2-27.05,26.78-40.81,1.86-2.99,10.7-10.81,13.67-12.78l30.02-18.52c5.9-3.2,12.31-5.34,18.96-6.28l52.67-5.27c6.08-.63,13.4.49,19.1,2.72,21.92,8.51,40.14,17.91,48.29,20.8,5.11,1.81,14.18,8.35,17.94,12.24,15.57,16.04,39.69,44.32,42.11,46.64,5.02,4.8,8.24,20.71,8.35,27.7.13,7.31-15.57,66.03-16.37,68.98v-.02Z"/>
        <path class="cls-1" d="m263.59,236.29v-6.79l20.8-17.56-15.77-17.24,1.25-4.76,17.34,17.31c4.44,4.13,5.14,5.96,1.43,9.16l-25.06,19.9v-.02Z"/>
        <path class="cls-1" d="m230.19,213.65c-1.86-.89-8.82-2.81-9.32-5.63-.25-1.38-.65-4.27-.05-5.5l4.53-10.7s-.73,5.85-.98,7.17c-.51,2.63-.11,6.21.98,8.71.54,1.25,1.12,2.77,2.37,4.06,1.18,1.21,2.48,1.9,2.48,1.9Z"/>
      </g>
    </g>
  </g>
  <path class="cls-1" d="m183.31,220.99c-1.12.87-2.66,1.23-4.06,1.18-.49,0-3.78-.52-3.61-1.42l13.68-75.11c1.81-2.08,4.87-2.77,7.13-1.14,4.15,2.64,2.14,13.38,1.41,18.14-.65,5.14-2.64,11.22-4.69,13.78-1.43,1.81-3.28,3.73-5.36,4.96-2.66,1.54-5.16,1.85-5.16,1.85,0,0,3.98-.27,5.83,4.73,2.21,7.53,1.85,15.64-.43,23.1-.8,2.61-1.9,6.75-3.86,9.05,0,0-.58.65-.89.89Z"/>
  <path class="cls-1" d="m246.08,215.66c-.86.79-1.96,1.32-3.48,1.32-1.14,0-2.53-.57-2.42-1.31l9.32-62.85c1.36-1.77,3.71-2.39,5.49-1.05,3.24,2.15,2.05,11.13,1.38,15.08-.78,4.62-1.86,9.4-3.39,11.55-1.09,1.54-2.48,3.17-4.06,4.22-2.03,1.32-3.95,1.61-3.95,1.61,0,0,3.08-.29,4.58,3.86,1.81,6.25,1.68,13,.02,19.25-.58,2.17-1.36,5.65-2.82,7.6,0,0-.43.51-.67.72Z"/>
  <path class="cls-1" d="m96.56,81.73c-23.91,0-43.29,19.38-43.29,43.29s19.38,43.29,43.29,43.29,43.29-19.38,43.29-43.29-19.38-43.29-43.29-43.29Zm-28.35,17.78l20.22-.02,28.45.03c2.15.73,6.45,2.55,8.34,4.09,1.28,1.04,2.33,1.88,3.27,3.27.36.53,1,1.64,1.21,2.25.08.24.49,1.3.51,1.52.07.7.36,1.41.39,2.08.28,5.31-.87,8.76-3.54,12.97l-.48.61c-.25.41-.48.49-.76.88-.2.27-.9.85-1.56,1.41s-1.29,1.04-1.65,1.26-.89.56-1.29.76c0,0-1.93,1.08-3.93,1.44-.14.02-.34.13-.53.15-.57.04-1.27.01-1.27.01h-1.21c-.73,0-9.34-.04-11.29-.04-.31,0-2.19,0-2.19,0l-5.91-2.1s9.64-.02,9.9-.24l1.51-.35c1.63-.4,3.83-1.38,4.35-1.62.09-.04.81-.46.9-.5,1.36-.9,1.64-1.18,2.46-2.02.24-.24.53-.62.81-1.01.38-.53.51-.85.78-1.41.16-.32.37-.89.53-1.41.16-.53.24-1.06.36-1.61.04-.18.07-.77.1-.94.07-.78.1-1.47.1-2.27,0-.2-.04-2.08-.2-2.86-.03-.13-.11-.63-.11-.63,0,0-.13-.63-.13-.63,0-.02-.24-.86-.24-.87-.59-1.62-.91-2.25-2.18-3.55-.84-.86-2.08-1.98-3.23-2.42-.56-.21-1.09-.5-1.6-.75-.59-.3-1.97-.7-1.97-.7-.25,0-1.56-.18-1.83-.24-2.51-.48-23.11-.47-23.11-.47l-13.99-4.04Zm23.54,35.44c-.19.33-4.1,7.79-5.14,9.85-.1.19-.15.34-.19.43-.1.35,0,.44.06.51.06.08.25.21.4.26.34.14.78.22,1.24.3.29.05.62.1.86.14v1.63c0,.76,0,1.54,0,1.78l-17.29-.08v-3.36l2.37-.3s1.96-.41,3.02-1.1c.98-.63,1.41-1.74,1.56-2.03,0,0,.41-.87.49-1.02.95-1.84,4.11-7.96,4.57-8.82-.03,0-.98,0-2.37-.04s-3.32-.07-4.38-.53c-1.85-.81-2.98-2.29-4.02-3.84-1.64-2.45-3.75-7.57-5.89-10.93-.95-1.49-1.95-2.65-2.13-2.68l-1.2-.48h3.43c1.84.18,3.75.01,5.59.26,3.22.43,4.07,2.09,5.31,4.16.57.95.78,2.03,1.28,2.94.6,1.09,1.03,2.41,1.76,3.43,1.19,1.67,1.9,3.14,4.1,4.83.47-.95,3.8-7.36,3.8-7.36,0,0,1.23-1.99,1.69-3.21.1-.27.03-.36.05-.54.1-.88-2.32-.9-2.61-1,0,0-.02-.7,0-1.48.02-.91,0-1.88,0-1.88,3.87,0,13.38,0,17.25.08v3.38c-.8.04-3.68.26-4.7,1.1-.59.34-1.32,1.08-1.44,1.41-.87,1.15-1.55,2.88-1.92,3.56-1.09,2.02-3.29,6.25-3.29,6.25,0,0-2.05,3.8-2.27,4.39Zm24.35,19.04c-1.98.52-4.83.72-6.84.29-.89-.19-1.73-.58-2.56-.95-.04-.02-.07-.03-.11-.05-.13,0-.27,0-.4-.02-.68-.11-1.35-.42-1.93-.8-.18-.12-.33-.26-.47-.42-.25-.04-.49-.11-.65-.24-.14-.11-.26-.22-.39-.33,0,0,0,.01-.01.02-.05-.05-.1-.11-.15-.16-.57-.48-1.34-.9-1.81-1.5-.25-.32-4.04-6.52-4.21-7.05-.39-1.24-1.54-4.33-1.46-4.46-.33-.82-1.3-6.27-1.3-6.27,0,.16.64,1.78,1.73,3.36.96,1.39,2.43,2.74,2.58,2.86.63.5,1.26,1.03,1.97,1.47.28.18.58.3.86.48.42.25,1.49.75,2.55,1.13,1,.35,2,.6,2.2.63.83.13,1.7.34,2.54.41.99.08,2.02.14,2.95.14.54,0,.96-.04,1.55-.04,2.26,0,4-.38,6.11-.97.57-.16,1.68-.56,1.68-.56,0,0,.88-.35,1.72-.74s1.95-1.1,2.44-1.43c.4-.27,1.06-.77,1.61-1.29.72-.68,1.3-1.36,1.3-1.36l-11.51,17.83Z"/>
</svg>